<?xml version="1.0" standalone="no"?>
<!DOCTYPE svg PUBLIC "-//W3C//DTD SVG 20010904//EN"
 "http://www.w3.org/TR/2001/REC-SVG-20010904/DTD/svg10.dtd">
<svg version="1.0" xmlns="http://www.w3.org/2000/svg"
 width="1900.000000pt" height="1900.000000pt" viewBox="0 0 1900.000000 1900.000000"
 preserveAspectRatio="xMidYMid meet">
<metadata>
Created by potrace 1.11, written by Peter Selinger 2001-2013
</metadata>
<g transform="translate(0.000000,1900.000000) scale(0.100000,-0.100000)"
fill="#000000" stroke="none">
<path d="M9168 17965 c-2 -2 -62 -7 -133 -10 -72 -3 -154 -7 -182 -10 -29 -3
-77 -7 -105 -10 -176 -16 -298 -29 -368 -40 -14 -3 -47 -7 -75 -10 -88 -10
-412 -68 -615 -110 -212 -44 -743 -190 -880 -242 -8 -3 -20 -7 -27 -8 -66 -15
-558 -209 -783 -310 -128 -57 -495 -241 -568 -284 -29 -17 -54 -31 -56 -31 -6
0 -230 -131 -346 -203 -110 -68 -382 -248 -452 -299 -103 -76 -271 -201 -286
-213 -9 -7 -69 -55 -132 -106 -347 -280 -719 -635 -1030 -984 -51 -57 -200
-234 -235 -279 -16 -21 -35 -44 -41 -50 -48 -51 -297 -390 -410 -561 -116
-173 -117 -175 -135 -204 -238 -384 -421 -727 -583 -1095 -63 -142 -173 -415
-211 -521 -9 -27 -21 -59 -26 -70 -44 -101 -195 -611 -253 -858 -34 -139 -96
-442 -111 -532 -22 -144 -47 -305 -51 -335 -4 -37 -7 -64 -24 -200 -5 -47 -12
-123 -16 -170 -3 -47 -7 -101 -9 -120 -27 -271 -27 -973 0 -1300 9 -98 16
-176 20 -205 2 -16 7 -57 10 -90 10 -93 15 -128 35 -270 5 -38 12 -81 14 -95
3 -14 7 -41 10 -60 6 -35 20 -118 31 -175 6 -33 55 -271 60 -295 2 -8 11 -46
20 -85 9 -38 18 -78 20 -87 18 -86 139 -504 195 -668 214 -631 506 -1250 840
-1780 38 -62 70 -116 70 -120 0 -5 3 -10 8 -12 4 -1 37 -48 74 -103 103 -156
156 -231 252 -360 74 -99 277 -357 296 -375 3 -3 30 -34 60 -70 56 -67 201
-229 255 -286 316 -331 621 -612 920 -849 28 -22 52 -42 55 -45 9 -9 274 -206
340 -252 272 -189 511 -339 785 -490 176 -98 522 -270 650 -324 20 -8 64 -27
98 -43 301 -135 942 -353 1257 -427 220 -51 423 -97 465 -104 28 -5 64 -12 80
-15 134 -27 391 -65 441 -65 291 0 455 334 275 560 -44 55 -54 64 -111 94 -49
26 -121 43 -259 61 -85 12 -261 45 -453 84 -68 15 -257 59 -298 71 -19 5 -100
28 -180 51 -649 183 -1261 446 -1850 796 -135 80 -288 176 -307 193 -7 5 -14
10 -17 10 -12 0 -264 182 -505 365 -50 38 -313 258 -369 309 -350 318 -651
636 -897 946 -33 41 -62 77 -65 80 -11 11 -179 238 -221 300 -24 36 -47 67
-50 70 -21 18 -379 589 -379 605 0 2 -15 30 -34 62 -70 121 -215 414 -303 613
-14 30 -31 69 -38 85 -22 47 -111 274 -169 430 -34 94 -113 334 -136 415 -9
36 -32 117 -50 180 -75 272 -173 748 -195 955 -4 31 -8 65 -10 77 -3 11 -7 46
-10 77 -3 31 -8 70 -10 86 -2 17 -7 64 -11 105 -3 41 -8 91 -10 110 -26 257
-25 989 0 1240 2 19 7 69 11 110 11 133 23 244 29 276 2 11 7 46 10 79 4 33 9
67 11 75 3 8 6 31 9 50 5 37 23 151 30 186 2 12 7 37 10 55 20 129 100 468
155 664 282 996 719 1862 1351 2680 83 108 105 136 125 159 6 6 30 36 55 66
198 242 649 701 850 866 19 16 44 37 55 47 11 11 54 47 95 80 41 34 77 64 80
67 11 12 190 149 280 214 52 38 111 81 130 96 67 51 356 238 493 318 380 226
794 429 1157 567 69 26 139 53 155 60 55 23 428 144 555 179 245 68 547 138
765 176 33 5 69 12 80 14 12 2 48 8 80 12 33 4 62 8 65 9 5 1 75 11 140 20 25
3 91 11 168 20 39 5 109 11 222 20 317 26 1019 26 1235 -1 17 -2 59 -6 95 -9
141 -12 268 -27 425 -50 105 -16 117 -18 218 -36 34 -6 76 -13 92 -16 157 -24
769 -176 860 -213 11 -5 38 -14 60 -20 53 -16 325 -108 350 -119 11 -5 85 -35
165 -67 276 -110 667 -293 868 -408 35 -20 68 -36 73 -36 5 0 9 -4 9 -10 0 -5
4 -10 10 -10 11 0 191 -105 305 -178 291 -185 590 -404 843 -615 86 -72 162
-136 168 -141 6 -6 58 -54 115 -106 172 -158 379 -368 549 -559 41 -46 80 -89
85 -95 39 -43 208 -252 287 -356 716 -941 1199 -2003 1437 -3160 16 -80 32
-161 35 -180 7 -45 14 -86 22 -130 4 -19 8 -46 10 -60 1 -14 5 -38 8 -55 3
-16 8 -52 11 -80 3 -27 8 -61 10 -75 2 -14 6 -50 10 -80 3 -30 8 -71 10 -90 2
-19 7 -69 11 -110 3 -41 8 -91 9 -110 25 -287 26 -950 1 -1210 -2 -19 -7 -69
-11 -110 -8 -92 -15 -162 -31 -290 -3 -25 -10 -71 -15 -102 -5 -32 -12 -77
-14 -100 -3 -24 -8 -56 -11 -73 -4 -16 -8 -39 -9 -50 -11 -88 -88 -445 -136
-625 -17 -63 -32 -122 -34 -130 -2 -8 -16 -55 -30 -105 -15 -49 -28 -97 -30
-105 -2 -8 -30 -94 -63 -190 -79 -232 -157 -436 -237 -615 -147 -332 -266
-567 -413 -817 -43 -73 -85 -144 -93 -158 -8 -14 -17 -27 -20 -30 -3 -3 -12
-16 -19 -29 -15 -29 -134 -210 -221 -336 -57 -83 -246 -336 -290 -388 -10 -12
-55 -67 -101 -122 -45 -55 -87 -105 -93 -111 -5 -6 -39 -45 -75 -85 -206 -234
-489 -513 -747 -737 -46 -40 -322 -262 -398 -320 -156 -119 -668 -462 -691
-462 -2 0 -27 -15 -56 -33 -101 -64 -641 -347 -662 -347 -2 0 -46 -20 -98 -43
-232 -109 -585 -240 -919 -342 -196 -60 -633 -168 -764 -190 -16 -2 -62 -11
-102 -18 l-72 -14 5 526 c2 289 6 699 9 911 2 212 4 417 4 457 l1 72 844 0
c464 0 857 3 872 7 45 11 120 51 159 85 64 57 103 144 119 269 4 25 8 56 10
70 5 28 24 147 31 200 3 19 10 65 16 102 6 37 12 78 14 90 13 96 24 167 40
268 6 37 33 210 39 250 3 19 12 82 21 140 8 58 17 116 20 130 3 14 8 45 10 70
3 25 7 54 10 66 5 23 10 54 24 154 5 36 21 142 35 235 14 94 28 185 31 204 3
19 7 43 10 55 3 12 7 39 9 61 3 22 7 51 10 65 2 14 7 43 10 65 2 22 10 72 16
110 6 39 13 84 15 100 2 17 9 59 15 95 16 100 48 310 55 360 3 25 10 70 15
100 9 50 15 90 25 160 2 14 6 44 10 68 l7 42 287 0 c309 0 353 6 431 55 71 45
140 144 155 223 5 28 6 363 5 1345 0 390 -4 576 -12 595 -30 75 -41 93 -82
139 -30 33 -67 60 -108 79 l-63 29 -1065 3 c-586 1 -1161 3 -1277 5 l-213 2
111 135 c96 117 331 425 382 500 181 269 266 409 378 625 231 447 362 854 414
1285 11 87 14 398 5 470 -4 36 -10 88 -14 115 -10 93 -16 127 -41 230 -57 243
-154 384 -334 491 -75 43 -213 99 -274 109 -17 3 -48 10 -67 15 -157 39 -444
30 -657 -20 -165 -38 -379 -112 -535 -183 -124 -57 -111 -61 -160 45 -136 293
-239 471 -340 584 -177 199 -418 330 -663 359 -52 7 -189 7 -225 1 -19 -3 -51
-8 -70 -10 -52 -7 -210 -61 -272 -92 -285 -143 -469 -377 -676 -856 l-21 -47
-133 63 c-395 188 -640 255 -918 250 -155 -3 -260 -24 -368 -74 -124 -58 -194
-117 -271 -230 -80 -115 -147 -281 -176 -431 -2 -11 -6 -28 -9 -37 -3 -9 -7
-37 -10 -62 -3 -25 -8 -72 -13 -105 -15 -122 -7 -575 12 -670 3 -11 7 -38 10
-60 88 -641 374 -1276 807 -1791 162 -192 387 -418 515 -517 23 -17 44 -37 47
-43 3 -7 -28 -11 -93 -11 -88 -1 -286 -4 -1071 -18 -409 -7 -844 -14 -1220
-20 -197 -3 -355 -9 -383 -16 -108 -25 -208 -113 -248 -217 -21 -57 -21 -58
-23 -972 -1 -503 2 -939 6 -968 9 -70 48 -149 99 -199 43 -43 126 -89 175 -97
16 -2 158 -5 316 -5 l287 -1 6 -47 c9 -65 12 -88 35 -238 11 -71 27 -175 36
-230 16 -106 22 -144 29 -185 2 -14 7 -45 10 -70 3 -25 7 -56 10 -70 3 -14 8
-45 11 -70 3 -25 7 -56 10 -70 2 -14 7 -41 10 -60 3 -19 9 -60 14 -90 5 -30
12 -75 15 -100 6 -40 29 -192 40 -260 2 -14 20 -131 40 -260 19 -129 40 -264
46 -300 5 -36 12 -78 14 -95 2 -16 6 -43 8 -60 3 -16 10 -61 16 -100 6 -38 19
-126 30 -195 11 -69 23 -145 26 -170 3 -25 10 -70 15 -100 6 -30 12 -75 15
-100 3 -25 9 -67 14 -95 8 -43 16 -95 26 -170 22 -162 43 -254 71 -305 49 -90
140 -156 244 -177 8 -2 560 -3 1226 -4 1190 0 1211 0 1264 20 104 40 168 101
208 201 77 192 -28 403 -230 464 -38 11 -232 14 -1070 14 -562 1 -1026 1
-1030 2 -3 0 -9 17 -12 38 -3 20 -15 91 -25 157 -11 66 -22 140 -26 165 -3 25
-10 72 -15 105 -5 33 -12 78 -15 100 -9 59 -44 286 -61 392 -8 51 -17 114 -20
140 -3 27 -7 55 -9 63 -3 8 -9 47 -15 85 -11 81 -36 246 -44 290 -3 17 -8 50
-11 75 -3 25 -10 70 -15 100 -5 30 -11 71 -14 90 -3 19 -25 168 -50 330 -25
162 -57 372 -71 465 -14 94 -27 180 -29 191 -3 12 -7 47 -11 78 l-7 56 2253 2
c1795 3 2262 6 2291 16 90 31 194 142 218 234 42 154 -16 305 -151 395 -84 56
79 53 -2821 53 -1473 0 -2678 3 -2679 8 0 4 -1 244 -2 534 -2 383 1 529 9 532
6 2 96 5 200 6 104 1 268 3 364 5 96 2 342 6 545 9 204 3 494 8 645 11 151 3
412 7 580 10 758 13 986 17 1135 20 146 2 165 5 217 28 75 33 147 102 184 174
26 51 29 68 29 148 0 81 -4 100 -39 185 -21 52 -44 113 -52 135 -16 48 -60
233 -69 290 -10 66 -14 366 -5 425 4 30 11 75 15 100 17 111 103 400 126 424
5 6 9 16 9 23 0 11 102 225 130 273 142 245 281 448 411 605 171 205 212 249
519 555 l275 275 140 72 c151 77 305 141 423 174 70 19 85 23 142 34 14 3 36
7 50 11 62 14 267 13 329 -1 137 -33 145 -42 167 -194 4 -25 9 -55 11 -66 3
-11 6 -90 8 -175 6 -250 -34 -490 -131 -780 -19 -58 -39 -114 -44 -125 -5 -11
-34 -78 -65 -150 -246 -565 -709 -1208 -1334 -1854 -121 -125 -151 -189 -147
-311 3 -134 74 -243 194 -302 l67 -33 1483 -2 c815 0 1488 -3 1495 -6 9 -3 12
-124 11 -533 l0 -529 -570 -2 c-774 -3 -881 -6 -925 -26 -59 -26 -134 -92
-164 -143 -116 -198 -26 -440 191 -513 52 -17 86 -20 255 -20 308 0 330 -1
325 -9 -3 -5 -8 -31 -11 -58 -4 -27 -17 -116 -30 -199 -13 -82 -27 -170 -30
-195 -3 -25 -8 -52 -10 -60 -2 -8 -6 -33 -9 -55 -9 -69 -16 -120 -20 -140 -2
-11 -6 -38 -10 -60 -3 -22 -14 -96 -25 -165 -11 -69 -23 -145 -26 -170 -3 -25
-10 -70 -15 -100 -5 -30 -12 -75 -15 -100 -3 -25 -7 -52 -10 -60 -2 -8 -6 -37
-10 -65 -6 -50 -14 -102 -20 -134 -1 -9 -6 -41 -10 -71 -4 -30 -9 -64 -11 -75
-5 -21 -10 -60 -19 -122 -3 -21 -10 -63 -15 -93 -5 -30 -12 -75 -15 -100 -3
-25 -10 -70 -15 -100 -9 -52 -19 -120 -25 -165 -11 -75 -37 -249 -45 -295 -5
-30 -12 -72 -15 -92 -3 -21 -8 -55 -11 -75 -3 -21 -7 -48 -9 -60 -2 -13 -6
-41 -10 -63 l-7 -40 -861 -1 c-474 0 -873 -3 -887 -5 -40 -7 -122 -49 -159
-80 -55 -46 -101 -126 -117 -204 -3 -15 -9 -376 -19 -1290 -3 -256 -8 -679
-12 -940 -11 -681 -12 -635 20 -702 42 -86 123 -154 224 -186 31 -10 142 -9
228 1 43 6 234 34 275 42 119 20 220 38 245 42 17 2 46 8 65 13 19 5 50 12 67
15 60 10 326 73 443 105 597 161 1072 342 1620 615 354 176 776 428 1070 638
101 73 353 259 360 267 3 3 52 43 110 90 112 90 112 90 235 196 129 111 207
185 435 414 236 236 381 396 618 685 206 251 524 715 700 1020 19 33 43 75 53
93 184 318 389 748 535 1126 174 445 356 1079 420 1456 2 14 7 36 10 50 3 14
8 39 10 55 2 17 8 53 13 80 11 54 20 110 27 165 2 19 6 46 9 60 2 14 7 48 11
75 3 28 7 61 9 75 9 63 21 181 30 295 4 44 9 96 11 115 26 245 26 1004 -1
1280 -1 19 -6 71 -10 115 -11 136 -46 436 -61 520 -3 17 -7 46 -10 65 -6 48
-43 256 -54 305 -5 22 -17 75 -25 118 -8 43 -31 144 -51 225 -19 81 -37 154
-39 163 -27 124 -209 699 -265 834 -5 11 -30 74 -55 140 -46 118 -111 272
-155 370 -29 65 -258 525 -270 545 -8 12 -62 107 -145 255 -27 49 -79 135
-116 190 -21 33 -42 67 -46 75 -17 37 -317 470 -380 550 -6 8 -67 85 -134 170
-67 85 -125 157 -128 160 -3 3 -28 32 -55 65 -27 33 -54 65 -60 70 -6 6 -47
51 -91 100 -446 502 -1001 987 -1565 1366 -152 103 -275 183 -315 205 -11 6
-50 29 -86 51 -252 155 -711 390 -1014 518 -88 37 -173 73 -190 80 -230 98
-911 318 -1080 349 -11 2 -56 13 -100 24 -104 27 -353 80 -459 98 -17 2 -38 7
-46 9 -8 2 -35 7 -60 10 -41 5 -123 18 -190 29 -36 6 -106 15 -170 22 -30 3
-66 8 -80 10 -14 2 -59 6 -100 9 -41 4 -86 8 -100 11 -14 2 -70 7 -125 10 -55
3 -118 8 -140 10 -46 6 -832 14 -837 9z m447 -4069 c88 -37 187 -184 359 -530
l88 -178 -133 -133 c-184 -182 -284 -288 -451 -478 l-33 -38 -75 102 c-101
141 -223 291 -348 432 l-105 119 32 81 c54 134 165 357 218 437 60 90 132 165
176 184 44 20 226 21 272 2z m-2132 -701 c175 -36 421 -139 661 -275 151 -86
148 -84 331 -284 146 -160 324 -389 437 -561 96 -147 93 -140 67 -183 -83
-140 -158 -290 -239 -477 -79 -181 -172 -527 -195 -720 -3 -27 -8 -70 -11 -95
-2 -25 -5 -120 -6 -212 0 -121 -4 -166 -12 -161 -20 12 -129 86 -145 99 -9 7
-62 49 -118 93 -373 297 -686 707 -882 1155 -54 123 -134 342 -145 399 -3 12
-11 47 -19 77 -16 61 -44 188 -52 238 -3 17 -7 44 -9 60 -26 161 -27 473 -3
612 18 97 52 215 69 237 20 25 148 24 271 -2z"/>
</g>
</svg>
